<svg width="1440" height="1525" viewBox="0 0 1440 1525" fill="none" xmlns="http://www.w3.org/2000/svg">
<path d="M1408.1 408.851C1475.54 429.196 1520.62 510.592 1523.69 587.658C1526.17 664.799 1487.25 737.536 1480.05 823.698C1473.44 909.786 1499.16 1009.22 1467.33 1076.27C1435.57 1143.9 1346.86 1179.06 1257.47 1184.89C1168.75 1191.24 1080.38 1166.92 1015.88 1117.38C951.967 1067.77 911.924 992.949 860.418 912.962C808.32 833.05 744.834 748.564 746.488 666.1C747.552 583.711 814.348 503.269 894.997 470.921C975.721 439.163 1069.71 455.573 1161.24 442.871C1252.76 430.17 1341.32 389.023 1408.1 408.851Z" fill="#FFE2D1" fill-opacity="0.25"/>
<g clip-path="url(#clip0)">
<path d="M1566.97 732.106C1598.6 793.97 1571.51 881.688 1518.79 936.587C1465.62 991.116 1387.28 1013.19 1321.08 1067.01C1255.33 1121.2 1202.17 1207.49 1132.74 1230.72C1062.93 1254.41 977.29 1215.39 912.053 1155.83C846.904 1097.09 803.807 1017.63 794.956 937.896C786.563 858.528 812.416 778.882 834.108 687.554C855.342 595.856 872.046 492.934 931.831 437.706C991.159 382.108 1094.03 374.573 1172.15 409.783C1249.91 445.449 1302.47 523.491 1374.06 579.874C1445.65 636.257 1535.44 671.069 1566.97 732.106Z" fill="#F39690" fill-opacity="0.25"/>
</g>
<path d="M-25.3009 989.712L37.3748 757.775L229.14 902.514L-25.3009 989.712Z" stroke="#FFE2D1" stroke-opacity="0.25" stroke-width="10"/>
<path d="M-89.6031 1054.42L11.1992 681.396L319.617 914.181L-89.6031 1054.42Z" stroke="#FFE2D1" stroke-opacity="0.25" stroke-width="10"/>
<path d="M-150.46 1115.67L-13.5741 609.109L405.248 925.224L-150.46 1115.67Z" stroke="#FFE2D1" stroke-opacity="0.25" stroke-width="10"/>
<path d="M-212.466 1178.07L-38.8148 535.458L492.494 936.474L-212.466 1178.07Z" stroke="#FFE2D1" stroke-opacity="0.25" stroke-width="10"/>
<defs>
<clipPath id="clip0">
<rect width="1175.72" height="1175.72" fill="white" transform="translate(1085.82 0.495972) rotate(38.9632)"/>
</clipPath>
</defs>
</svg>
