<svg width="1440" height="2091" viewBox="0 0 1440 2091" fill="none" xmlns="http://www.w3.org/2000/svg">
<g clip-path="url(#clip0)">
<path d="M885.192 897.526C929.704 974.031 901.331 1087.44 838.09 1160.87C774.242 1233.86 676.131 1267.3 595.656 1340.28C515.788 1413.69 454.162 1527.08 367.451 1561.38C280.302 1596.28 168.674 1552.53 81.5665 1481.26C-5.37227 1411.03 -65.6992 1312.93 -82.4863 1212.14C-98.6665 1111.78 -71.3067 1008.72 -50.0501 891.091C-29.4005 773.024 -15.2924 640.993 56.92 566.661C128.525 491.891 258.842 475.26 360.656 514.682C462.032 554.711 534.298 650.355 629.264 717.151C724.23 783.948 840.849 822.066 885.192 897.526Z" fill="#FFD1DA" fill-opacity="0.25"/>
</g>
<path d="M601.787 634.392C677.396 670.343 715.837 774.078 705.705 865.23C694.866 956.363 636.163 1034.93 612.341 1134.94C589.227 1234.98 601.702 1356.47 552.35 1429.61C502.979 1503.46 392.49 1528.97 286.431 1519.87C181.062 1511.5 81.576 1467.14 14.6282 1397.4C-51.6115 1327.67 -85.3128 1232.56 -131.561 1129.34C-178.518 1026.09 -238.039 915.442 -221.389 818.789C-205.447 722.117 -112.626 639.463 -12.1053 615.821C88.3972 592.887 195.891 628.947 305.69 630.345C415.49 631.742 526.869 599.166 601.787 634.392Z" fill="#F390B4" fill-opacity="0.25"/>
<path fill-rule="evenodd" clip-rule="evenodd" d="M1595 1000C1595 1152.43 1471.43 1276 1319 1276C1166.57 1276 1043 1152.43 1043 1000C1043 847.569 1166.57 724 1319 724C1471.43 724 1595 847.569 1595 1000ZM1605 1000C1605 1157.95 1476.95 1286 1319 1286C1161.05 1286 1033 1157.95 1033 1000C1033 842.047 1161.05 714 1319 714C1476.95 714 1605 842.047 1605 1000ZM1319 1227C1444.37 1227 1546 1125.37 1546 1000C1546 874.631 1444.37 773 1319 773C1193.63 773 1092 874.631 1092 1000C1092 1125.37 1193.63 1227 1319 1227ZM1319 1237C1449.89 1237 1556 1130.89 1556 1000C1556 869.109 1449.89 763 1319 763C1188.11 763 1082 869.109 1082 1000C1082 1130.89 1188.11 1237 1319 1237ZM1503 1000C1503 1101.62 1420.62 1184 1319 1184C1217.38 1184 1135 1101.62 1135 1000C1135 898.38 1217.38 816 1319 816C1420.62 816 1503 898.38 1503 1000ZM1513 1000C1513 1107.14 1426.14 1194 1319 1194C1211.86 1194 1125 1107.14 1125 1000C1125 892.857 1211.86 806 1319 806C1426.14 806 1513 892.857 1513 1000ZM1319 1145C1399.08 1145 1464 1080.08 1464 1000C1464 919.919 1399.08 855 1319 855C1238.92 855 1174 919.919 1174 1000C1174 1080.08 1238.92 1145 1319 1145ZM1319 1155C1404.6 1155 1474 1085.6 1474 1000C1474 914.396 1404.6 845 1319 845C1233.4 845 1164 914.396 1164 1000C1164 1085.6 1233.4 1155 1319 1155ZM1319 1098C1373.12 1098 1417 1054.12 1417 1000C1417 945.876 1373.12 902 1319 902C1264.88 902 1221 945.876 1221 1000C1221 1054.12 1264.88 1098 1319 1098ZM1319 1108C1378.65 1108 1427 1059.65 1427 1000C1427 940.353 1378.65 892 1319 892C1259.35 892 1211 940.353 1211 1000C1211 1059.65 1259.35 1108 1319 1108Z" fill="#FFD1DA" fill-opacity="0.25"/>
<defs>
<clipPath id="clip0">
<rect width="1498" height="1497" fill="white" transform="translate(222.457 0.106995) rotate(35.8605)"/>
</clipPath>
</defs>
</svg>
