<svg width="1399" height="1443" viewBox="0 0 1399 1443" fill="none" xmlns="http://www.w3.org/2000/svg">
<path d="M1501.96 244.373C1573.35 276.125 1611.69 372.042 1604.41 457.376C1596.48 542.709 1543.6 617.459 1523.77 711.392C1504.6 805.325 1519.14 918.441 1474.86 987.899C1430.57 1058.02 1328.12 1084.48 1228.97 1078.52C1130.48 1073.23 1036.62 1034.2 972.498 970.7C909.042 907.196 875.331 819.216 829.722 723.96C783.452 628.704 725.284 526.833 738.504 436.208C751.063 345.582 835.671 266.202 928.872 241.727C1022.07 217.913 1123.21 249.003 1225.66 247.68C1328.12 246.357 1431.23 213.282 1501.96 244.373Z" fill="#ECD1FF" fill-opacity="0.25"/>
<g clip-path="url(#clip0)">
<path d="M1176.11 148.896C1249.19 137.647 1328.75 194.364 1366.57 265.988C1403.87 337.95 1399.97 424.48 1432.19 509.371C1464.93 593.924 1534.33 676.499 1534.56 754.423C1535.14 832.874 1467.07 906.336 1385.07 952.315C1303.93 998.482 1209.23 1015.44 1125.72 997.699C1042.72 979.624 970.91 926.857 885.901 874.386C800.366 822.254 701.975 770.943 666.182 692.065C629.863 613.525 656.668 507.08 718.379 439.931C780.428 373.307 876.857 346.317 957.772 292.858C1038.69 239.398 1103.9 160.334 1176.11 148.896Z" fill="#CA90F3" fill-opacity="0.25"/>
</g>
<circle cx="72.0553" cy="680.123" r="8.1226" fill="#ECD1FF" fill-opacity="0.5"/>
<circle cx="8.1226" cy="680.123" r="8.1226" fill="#ECD1FF" fill-opacity="0.5"/>
<circle cx="40.0889" cy="680.123" r="8.1226" fill="#ECD1FF" fill-opacity="0.5"/>
<circle cx="72.0553" cy="767.123" r="8.1226" fill="#ECD1FF" fill-opacity="0.5"/>
<circle cx="8.1226" cy="767.123" r="8.1226" fill="#ECD1FF" fill-opacity="0.5"/>
<circle cx="40.0889" cy="767.123" r="8.1226" fill="#ECD1FF" fill-opacity="0.5"/>
<circle cx="72.0553" cy="622.123" r="8.1226" fill="#ECD1FF" fill-opacity="0.5"/>
<circle cx="8.1226" cy="622.123" r="8.1226" fill="#ECD1FF" fill-opacity="0.5"/>
<circle cx="40.0889" cy="622.123" r="8.1226" fill="#ECD1FF" fill-opacity="0.5"/>
<circle cx="72.0553" cy="738.123" r="8.1226" fill="#ECD1FF" fill-opacity="0.5"/>
<circle cx="8.1226" cy="738.123" r="8.1226" fill="#ECD1FF" fill-opacity="0.5"/>
<circle cx="40.0889" cy="738.123" r="8.1226" fill="#ECD1FF" fill-opacity="0.5"/>
<circle cx="72.0553" cy="506.123" r="8.1226" fill="#ECD1FF" fill-opacity="0.5"/>
<circle cx="8.1226" cy="506.123" r="8.1226" fill="#ECD1FF" fill-opacity="0.5"/>
<circle cx="40.0889" cy="506.123" r="8.1226" fill="#ECD1FF" fill-opacity="0.5"/>
<circle cx="72.0553" cy="651.123" r="8.1226" fill="#ECD1FF" fill-opacity="0.5"/>
<circle cx="8.1226" cy="651.123" r="8.1226" fill="#ECD1FF" fill-opacity="0.5"/>
<circle cx="40.0889" cy="651.123" r="8.1226" fill="#ECD1FF" fill-opacity="0.5"/>
<circle cx="72.0553" cy="419.123" r="8.1226" fill="#ECD1FF" fill-opacity="0.5"/>
<circle cx="8.1226" cy="419.123" r="8.1226" fill="#ECD1FF" fill-opacity="0.5"/>
<circle cx="40.0889" cy="419.123" r="8.1226" fill="#ECD1FF" fill-opacity="0.5"/>
<circle cx="72.0553" cy="390.123" r="8.1226" fill="#ECD1FF" fill-opacity="0.5"/>
<circle cx="8.1226" cy="390.123" r="8.1226" fill="#ECD1FF" fill-opacity="0.5"/>
<circle cx="40.0889" cy="390.123" r="8.1226" fill="#ECD1FF" fill-opacity="0.5"/>
<circle cx="72.0553" cy="448.123" r="8.1226" fill="#ECD1FF" fill-opacity="0.5"/>
<circle cx="8.1226" cy="448.123" r="8.1226" fill="#ECD1FF" fill-opacity="0.5"/>
<circle cx="40.0889" cy="448.123" r="8.1226" fill="#ECD1FF" fill-opacity="0.5"/>
<circle cx="72.0553" cy="535.123" r="8.1226" fill="#ECD1FF" fill-opacity="0.5"/>
<circle cx="8.1226" cy="535.123" r="8.1226" fill="#ECD1FF" fill-opacity="0.5"/>
<circle cx="40.0889" cy="535.123" r="8.1226" fill="#ECD1FF" fill-opacity="0.5"/>
<circle cx="72.0553" cy="564.123" r="8.1226" fill="#ECD1FF" fill-opacity="0.5"/>
<circle cx="8.1226" cy="564.123" r="8.1226" fill="#ECD1FF" fill-opacity="0.5"/>
<circle cx="40.0889" cy="564.123" r="8.1226" fill="#ECD1FF" fill-opacity="0.5"/>
<circle cx="72.0553" cy="709.123" r="8.1226" fill="#ECD1FF" fill-opacity="0.5"/>
<circle cx="8.1226" cy="709.123" r="8.1226" fill="#ECD1FF" fill-opacity="0.5"/>
<circle cx="40.0889" cy="709.123" r="8.1226" fill="#ECD1FF" fill-opacity="0.5"/>
<circle cx="72.0553" cy="477.123" r="8.1226" fill="#ECD1FF" fill-opacity="0.5"/>
<circle cx="8.1226" cy="477.123" r="8.1226" fill="#ECD1FF" fill-opacity="0.5"/>
<circle cx="40.0889" cy="477.123" r="8.1226" fill="#ECD1FF" fill-opacity="0.5"/>
<circle cx="72.0553" cy="593.123" r="8.1226" fill="#ECD1FF" fill-opacity="0.5"/>
<circle cx="8.1226" cy="593.123" r="8.1226" fill="#ECD1FF" fill-opacity="0.5"/>
<circle cx="40.0889" cy="593.123" r="8.1226" fill="#ECD1FF" fill-opacity="0.5"/>
<defs>
<clipPath id="clip0">
<rect width="1251.25" height="1251.25" fill="white" transform="translate(276 390.216) rotate(-32.7132)"/>
</clipPath>
</defs>
</svg>
