<svg width="154" height="154" viewBox="0 0 154 154" fill="none" xmlns="http://www.w3.org/2000/svg">
<path d="M110.495 38.038C118.195 43.582 120.813 56.21 120.505 67.375C120.12 78.617 116.963 88.396 113.575 101.717C110.187 114.961 106.568 131.747 97.02 137.676C87.472 143.682 71.841 138.831 58.905 131.824C45.892 124.894 35.574 115.885 27.489 104.412C19.404 92.862 13.629 78.848 18.172 68.992C22.792 59.136 37.576 53.438 49.126 48.587C60.676 43.813 68.838 39.809 79.387 37.037C89.859 34.188 102.795 32.571 110.495 38.038Z" fill="#6015A3"/>
<path d="M66.0688 70.1581V84.2581H62.1488V76.4781L59.4888 84.2581H56.2088L53.5288 76.4181V84.2581H49.6088V70.1581H54.3488L57.8888 79.3181L61.3488 70.1581H66.0688ZM75.0602 84.3981C73.7402 84.3981 72.5269 84.0914 71.4202 83.4781C70.3136 82.8514 69.4336 81.9914 68.7802 80.8981C68.1402 79.7914 67.8202 78.5447 67.8202 77.1581C67.8202 75.7714 68.1402 74.5314 68.7802 73.4381C69.4336 72.3314 70.3136 71.4714 71.4202 70.8581C72.5269 70.2447 73.7402 69.9381 75.0602 69.9381C76.3936 69.9381 77.6069 70.2447 78.7002 70.8581C79.8069 71.4714 80.6802 72.3314 81.3202 73.4381C81.9602 74.5314 82.2802 75.7714 82.2802 77.1581C82.2802 78.5447 81.9602 79.7914 81.3202 80.8981C80.6802 81.9914 79.8069 82.8514 78.7002 83.4781C77.5936 84.0914 76.3802 84.3981 75.0602 84.3981ZM75.0602 80.7581C76.0602 80.7581 76.8469 80.4314 77.4202 79.7781C78.0069 79.1247 78.3002 78.2514 78.3002 77.1581C78.3002 76.0381 78.0069 75.1581 77.4202 74.5181C76.8469 73.8647 76.0602 73.5381 75.0602 73.5381C74.0469 73.5381 73.2536 73.8647 72.6802 74.5181C72.1069 75.1581 71.8202 76.0381 71.8202 77.1581C71.8202 78.2647 72.1069 79.1447 72.6802 79.7981C73.2536 80.4381 74.0469 80.7581 75.0602 80.7581ZM97.1024 84.2581H93.1824L87.9624 76.3781V84.2581H84.0424V70.1581H87.9624L93.1824 78.1381V70.1581H97.1024V84.2581ZM55.1888 90.1581C56.6688 90.1581 57.9622 90.4581 59.0688 91.0581C60.1888 91.6447 61.0488 92.4714 61.6488 93.5381C62.2488 94.6047 62.5488 95.8247 62.5488 97.1981C62.5488 98.5581 62.2422 99.7714 61.6288 100.838C61.0288 101.905 60.1688 102.745 59.0488 103.358C57.9422 103.958 56.6555 104.258 55.1888 104.258H49.6088V90.1581H55.1888ZM54.8888 100.798C56.0355 100.798 56.9355 100.485 57.5888 99.8581C58.2422 99.2314 58.5688 98.3447 58.5688 97.1981C58.5688 96.0381 58.2422 95.1447 57.5888 94.5181C56.9355 93.8781 56.0355 93.5581 54.8888 93.5581H53.5288V100.798H54.8888ZM73.2359 101.958H68.2359L67.4759 104.258H63.3559L68.4959 90.1581H73.0159L78.1359 104.258H73.9959L73.2359 101.958ZM72.2559 98.9581L70.7359 94.3981L69.2359 98.9581H72.2559ZM92.2335 90.1581L87.2735 99.7781V104.258H83.3335V99.7781L78.3735 90.1581H82.8535L85.3335 95.5981L87.8135 90.1581H92.2335Z" fill="white"/>
</svg>
