<svg width="504" height="206" viewBox="0 0 504 206" fill="none" xmlns="http://www.w3.org/2000/svg">
<rect width="503.598" height="205.102" rx="24" fill="white"/>
<path d="M161.816 95L153.688 85.048V95H149.208V72.664H153.688V82.68L161.816 72.664H167.224L158.008 83.736L167.48 95H161.816ZM178.299 95.288C176.592 95.288 175.056 94.9147 173.691 94.168C172.325 93.4 171.248 92.3227 170.459 90.936C169.691 89.5493 169.307 87.9493 169.307 86.136C169.307 84.3227 169.701 82.7227 170.491 81.336C171.301 79.9493 172.4 78.8827 173.787 78.136C175.173 77.368 176.72 76.984 178.427 76.984C180.133 76.984 181.68 77.368 183.067 78.136C184.453 78.8827 185.541 79.9493 186.331 81.336C187.141 82.7227 187.547 84.3227 187.547 86.136C187.547 87.9493 187.131 89.5493 186.299 90.936C185.488 92.3227 184.379 93.4 182.971 94.168C181.584 94.9147 180.027 95.288 178.299 95.288ZM178.299 91.384C179.109 91.384 179.867 91.192 180.571 90.808C181.296 90.4027 181.872 89.8053 182.299 89.016C182.725 88.2267 182.939 87.2667 182.939 86.136C182.939 84.4507 182.491 83.16 181.595 82.264C180.72 81.3467 179.643 80.888 178.363 80.888C177.083 80.888 176.005 81.3467 175.131 82.264C174.277 83.16 173.851 84.4507 173.851 86.136C173.851 87.8213 174.267 89.1227 175.099 90.04C175.952 90.936 177.019 91.384 178.299 91.384ZM212.849 77.016C215.025 77.016 216.774 77.688 218.097 79.032C219.441 80.3547 220.113 82.2107 220.113 84.6V95H215.633V85.208C215.633 83.8213 215.281 82.7653 214.577 82.04C213.873 81.2933 212.913 80.92 211.697 80.92C210.481 80.92 209.51 81.2933 208.785 82.04C208.081 82.7653 207.729 83.8213 207.729 85.208V95H203.249V85.208C203.249 83.8213 202.897 82.7653 202.193 82.04C201.489 81.2933 200.529 80.92 199.313 80.92C198.076 80.92 197.094 81.2933 196.369 82.04C195.665 82.7653 195.313 83.8213 195.313 85.208V95H190.833V77.272H195.313V79.416C195.889 78.6693 196.625 78.0827 197.521 77.656C198.438 77.2293 199.441 77.016 200.529 77.016C201.916 77.016 203.153 77.3147 204.241 77.912C205.329 78.488 206.172 79.32 206.769 80.408C207.345 79.384 208.177 78.5627 209.265 77.944C210.374 77.3253 211.569 77.016 212.849 77.016ZM228.844 79.832C229.42 79.0213 230.21 78.3493 231.212 77.816C232.236 77.2613 233.399 76.984 234.7 76.984C236.215 76.984 237.58 77.3573 238.796 78.104C240.034 78.8507 241.004 79.9173 241.708 81.304C242.434 82.6693 242.796 84.2587 242.796 86.072C242.796 87.8853 242.434 89.496 241.708 90.904C241.004 92.2907 240.034 93.368 238.796 94.136C237.58 94.904 236.215 95.288 234.7 95.288C233.399 95.288 232.247 95.0213 231.244 94.488C230.263 93.9547 229.463 93.2827 228.844 92.472V103.448H224.364V77.272H228.844V79.832ZM238.22 86.072C238.22 85.0053 237.996 84.088 237.548 83.32C237.122 82.5307 236.546 81.9333 235.82 81.528C235.116 81.1227 234.348 80.92 233.516 80.92C232.706 80.92 231.938 81.1333 231.212 81.56C230.508 81.9653 229.932 82.5627 229.484 83.352C229.058 84.1413 228.844 85.0693 228.844 86.136C228.844 87.2027 229.058 88.1307 229.484 88.92C229.932 89.7093 230.508 90.3173 231.212 90.744C231.938 91.1493 232.706 91.352 233.516 91.352C234.348 91.352 235.116 91.1387 235.82 90.712C236.546 90.2853 237.122 89.6773 237.548 88.888C237.996 88.0987 238.22 87.16 238.22 86.072ZM262.788 77.272V95H258.276V92.76C257.7 93.528 256.942 94.136 256.004 94.584C255.086 95.0107 254.084 95.224 252.996 95.224C251.609 95.224 250.382 94.936 249.316 94.36C248.249 93.7627 247.406 92.8987 246.788 91.768C246.19 90.616 245.892 89.2507 245.892 87.672V77.272H250.372V87.032C250.372 88.44 250.724 89.528 251.428 90.296C252.132 91.0427 253.092 91.416 254.308 91.416C255.545 91.416 256.516 91.0427 257.22 90.296C257.924 89.528 258.276 88.44 258.276 87.032V77.272H262.788ZM272.424 80.952V89.528C272.424 90.1253 272.563 90.5627 272.84 90.84C273.139 91.096 273.629 91.224 274.312 91.224H276.392V95H273.576C269.8 95 267.912 93.1653 267.912 89.496V80.952H265.8V77.272H267.912V72.888H272.424V77.272H276.392V80.952H272.424ZM296.094 85.752C296.094 86.392 296.052 86.968 295.966 87.48H283.006C283.113 88.76 283.561 89.7627 284.35 90.488C285.14 91.2133 286.11 91.576 287.262 91.576C288.926 91.576 290.11 90.8613 290.814 89.432H295.646C295.134 91.1387 294.153 92.5467 292.702 93.656C291.252 94.744 289.47 95.288 287.358 95.288C285.652 95.288 284.116 94.9147 282.75 94.168C281.406 93.4 280.35 92.3227 279.582 90.936C278.836 89.5493 278.462 87.9493 278.462 86.136C278.462 84.3013 278.836 82.6907 279.582 81.304C280.329 79.9173 281.374 78.8507 282.718 78.104C284.062 77.3573 285.609 76.984 287.358 76.984C289.044 76.984 290.548 77.3467 291.87 78.072C293.214 78.7973 294.249 79.832 294.974 81.176C295.721 82.4987 296.094 84.024 296.094 85.752ZM291.454 84.472C291.433 83.32 291.017 82.4027 290.206 81.72C289.396 81.016 288.404 80.664 287.23 80.664C286.121 80.664 285.182 81.0053 284.414 81.688C283.668 82.3493 283.209 83.2773 283.038 84.472H291.454ZM303.844 80.024C304.42 79.0853 305.167 78.3493 306.084 77.816C307.023 77.2827 308.09 77.016 309.284 77.016V81.72H308.1C306.692 81.72 305.626 82.0507 304.9 82.712C304.196 83.3733 303.844 84.5253 303.844 86.168V95H299.364V77.272H303.844V80.024ZM333.623 90.744H324.727L323.255 95H318.551L326.583 72.632H331.799L339.831 95H335.095L333.623 90.744ZM332.407 87.16L329.175 77.816L325.943 87.16H332.407ZM353.329 95L347.313 87.448V95H342.833V71.32H347.313V84.792L353.265 77.272H359.089L351.281 86.168L359.153 95H353.329ZM378.257 77.272V95H373.745V92.76C373.169 93.528 372.411 94.136 371.473 94.584C370.555 95.0107 369.553 95.224 368.465 95.224C367.078 95.224 365.851 94.936 364.785 94.36C363.718 93.7627 362.875 92.8987 362.257 91.768C361.659 90.616 361.361 89.2507 361.361 87.672V77.272H365.841V87.032C365.841 88.44 366.193 89.528 366.897 90.296C367.601 91.0427 368.561 91.416 369.777 91.416C371.014 91.416 371.985 91.0427 372.689 90.296C373.393 89.528 373.745 88.44 373.745 87.032V77.272H378.257ZM387.893 80.952V89.528C387.893 90.1253 388.031 90.5627 388.309 90.84C388.607 91.096 389.098 91.224 389.781 91.224H391.861V95H389.045C385.269 95 383.381 93.1653 383.381 89.496V80.952H381.269V77.272H383.381V72.888H387.893V77.272H391.861V80.952H387.893ZM393.931 86.072C393.931 84.28 394.283 82.6907 394.987 81.304C395.712 79.9173 396.683 78.8507 397.899 78.104C399.136 77.3573 400.512 76.984 402.027 76.984C403.35 76.984 404.502 77.2507 405.483 77.784C406.486 78.3173 407.286 78.9893 407.883 79.8V77.272H412.395V95H407.883V92.408C407.307 93.24 406.507 93.9333 405.483 94.488C404.48 95.0213 403.318 95.288 401.995 95.288C400.502 95.288 399.136 94.904 397.899 94.136C396.683 93.368 395.712 92.2907 394.987 90.904C394.283 89.496 393.931 87.8853 393.931 86.072ZM407.883 86.136C407.883 85.048 407.67 84.12 407.243 83.352C406.816 82.5627 406.24 81.9653 405.515 81.56C404.79 81.1333 404.011 80.92 403.179 80.92C402.347 80.92 401.579 81.1227 400.875 81.528C400.171 81.9333 399.595 82.5307 399.147 83.32C398.72 84.088 398.507 85.0053 398.507 86.072C398.507 87.1387 398.72 88.0773 399.147 88.888C399.595 89.6773 400.171 90.2853 400.875 90.712C401.6 91.1387 402.368 91.352 403.179 91.352C404.011 91.352 404.79 91.1493 405.515 90.744C406.24 90.3173 406.816 89.72 407.243 88.952C407.67 88.1627 407.883 87.224 407.883 86.136ZM426.595 77.016C428.707 77.016 430.413 77.688 431.715 79.032C433.016 80.3547 433.667 82.2107 433.667 84.6V95H429.187V85.208C429.187 83.8 428.835 82.7227 428.131 81.976C427.427 81.208 426.467 80.824 425.251 80.824C424.013 80.824 423.032 81.208 422.307 81.976C421.603 82.7227 421.251 83.8 421.251 85.208V95H416.771V77.272H421.251V79.48C421.848 78.712 422.605 78.1147 423.523 77.688C424.461 77.24 425.485 77.016 426.595 77.016ZM444.711 95.288C443.26 95.288 441.959 95.032 440.807 94.52C439.655 93.9867 438.737 93.272 438.055 92.376C437.393 91.48 437.031 90.488 436.967 89.4H441.479C441.564 90.0827 441.895 90.648 442.471 91.096C443.068 91.544 443.804 91.768 444.679 91.768C445.532 91.768 446.193 91.5973 446.663 91.256C447.153 90.9147 447.399 90.4773 447.399 89.944C447.399 89.368 447.1 88.9413 446.503 88.664C445.927 88.3653 444.999 88.0453 443.719 87.704C442.396 87.384 441.308 87.0533 440.455 86.712C439.623 86.3707 438.897 85.848 438.279 85.144C437.681 84.44 437.383 83.4907 437.383 82.296C437.383 81.3147 437.66 80.4187 438.215 79.608C438.791 78.7973 439.601 78.1573 440.647 77.688C441.713 77.2187 442.961 76.984 444.391 76.984C446.503 76.984 448.188 77.5173 449.447 78.584C450.705 79.6293 451.399 81.048 451.527 82.84H447.239C447.175 82.136 446.876 81.5813 446.343 81.176C445.831 80.7493 445.137 80.536 444.263 80.536C443.452 80.536 442.823 80.6853 442.375 80.984C441.948 81.2827 441.735 81.6987 441.735 82.232C441.735 82.8293 442.033 83.288 442.631 83.608C443.228 83.9067 444.156 84.216 445.415 84.536C446.695 84.856 447.751 85.1867 448.583 85.528C449.415 85.8693 450.129 86.4027 450.727 87.128C451.345 87.832 451.665 88.7707 451.687 89.944C451.687 90.968 451.399 91.8853 450.823 92.696C450.268 93.5067 449.457 94.1467 448.391 94.616C447.345 95.064 446.119 95.288 444.711 95.288ZM457.636 75.16C456.847 75.16 456.186 74.9147 455.652 74.424C455.14 73.912 454.884 73.2827 454.884 72.536C454.884 71.7893 455.14 71.1707 455.652 70.68C456.186 70.168 456.847 69.912 457.636 69.912C458.426 69.912 459.076 70.168 459.588 70.68C460.122 71.1707 460.388 71.7893 460.388 72.536C460.388 73.2827 460.122 73.912 459.588 74.424C459.076 74.9147 458.426 75.16 457.636 75.16ZM459.844 77.272V95H455.364V77.272H459.844ZM161.816 140L153.688 130.048V140H149.208V117.664H153.688V127.68L161.816 117.664H167.224L158.008 128.736L167.48 140H161.816ZM178.299 140.288C176.592 140.288 175.056 139.915 173.691 139.168C172.325 138.4 171.248 137.323 170.459 135.936C169.691 134.549 169.307 132.949 169.307 131.136C169.307 129.323 169.701 127.723 170.491 126.336C171.301 124.949 172.4 123.883 173.787 123.136C175.173 122.368 176.72 121.984 178.427 121.984C180.133 121.984 181.68 122.368 183.067 123.136C184.453 123.883 185.541 124.949 186.331 126.336C187.141 127.723 187.547 129.323 187.547 131.136C187.547 132.949 187.131 134.549 186.299 135.936C185.488 137.323 184.379 138.4 182.971 139.168C181.584 139.915 180.027 140.288 178.299 140.288ZM178.299 136.384C179.109 136.384 179.867 136.192 180.571 135.808C181.296 135.403 181.872 134.805 182.299 134.016C182.725 133.227 182.939 132.267 182.939 131.136C182.939 129.451 182.491 128.16 181.595 127.264C180.72 126.347 179.643 125.888 178.363 125.888C177.083 125.888 176.005 126.347 175.131 127.264C174.277 128.16 173.851 129.451 173.851 131.136C173.851 132.821 174.267 134.123 175.099 135.04C175.952 135.936 177.019 136.384 178.299 136.384ZM212.849 122.016C215.025 122.016 216.774 122.688 218.097 124.032C219.441 125.355 220.113 127.211 220.113 129.6V140H215.633V130.208C215.633 128.821 215.281 127.765 214.577 127.04C213.873 126.293 212.913 125.92 211.697 125.92C210.481 125.92 209.51 126.293 208.785 127.04C208.081 127.765 207.729 128.821 207.729 130.208V140H203.249V130.208C203.249 128.821 202.897 127.765 202.193 127.04C201.489 126.293 200.529 125.92 199.313 125.92C198.076 125.92 197.094 126.293 196.369 127.04C195.665 127.765 195.313 128.821 195.313 130.208V140H190.833V122.272H195.313V124.416C195.889 123.669 196.625 123.083 197.521 122.656C198.438 122.229 199.441 122.016 200.529 122.016C201.916 122.016 203.153 122.315 204.241 122.912C205.329 123.488 206.172 124.32 206.769 125.408C207.345 124.384 208.177 123.563 209.265 122.944C210.374 122.325 211.569 122.016 212.849 122.016ZM241.1 122.272V140H236.588V137.76C236.012 138.528 235.255 139.136 234.316 139.584C233.399 140.011 232.396 140.224 231.308 140.224C229.922 140.224 228.695 139.936 227.628 139.36C226.562 138.763 225.719 137.899 225.1 136.768C224.503 135.616 224.204 134.251 224.204 132.672V122.272H228.684V132.032C228.684 133.44 229.036 134.528 229.74 135.296C230.444 136.043 231.404 136.416 232.62 136.416C233.858 136.416 234.828 136.043 235.532 135.296C236.236 134.528 236.588 133.44 236.588 132.032V122.272H241.1ZM255.345 122.016C257.457 122.016 259.163 122.688 260.465 124.032C261.766 125.355 262.417 127.211 262.417 129.6V140H257.937V130.208C257.937 128.8 257.585 127.723 256.881 126.976C256.177 126.208 255.217 125.824 254.001 125.824C252.763 125.824 251.782 126.208 251.057 126.976C250.353 127.723 250.001 128.8 250.001 130.208V140H245.521V122.272H250.001V124.48C250.598 123.712 251.355 123.115 252.273 122.688C253.211 122.24 254.235 122.016 255.345 122.016ZM268.949 120.16C268.159 120.16 267.498 119.915 266.965 119.424C266.453 118.912 266.197 118.283 266.197 117.536C266.197 116.789 266.453 116.171 266.965 115.68C267.498 115.168 268.159 114.912 268.949 114.912C269.738 114.912 270.389 115.168 270.901 115.68C271.434 116.171 271.701 116.789 271.701 117.536C271.701 118.283 271.434 118.912 270.901 119.424C270.389 119.915 269.738 120.16 268.949 120.16ZM271.157 122.272V140H266.677V122.272H271.157ZM286.079 140L280.063 132.448V140H275.583V116.32H280.063V129.792L286.015 122.272H291.839L284.031 131.168L291.903 140H286.079ZM293.118 131.072C293.118 129.28 293.47 127.691 294.174 126.304C294.9 124.917 295.871 123.851 297.087 123.104C298.324 122.357 299.7 121.984 301.215 121.984C302.537 121.984 303.689 122.251 304.671 122.784C305.673 123.317 306.473 123.989 307.071 124.8V122.272H311.583V140H307.071V137.408C306.495 138.24 305.695 138.933 304.671 139.488C303.668 140.021 302.505 140.288 301.183 140.288C299.689 140.288 298.324 139.904 297.087 139.136C295.871 138.368 294.9 137.291 294.174 135.904C293.47 134.496 293.118 132.885 293.118 131.072ZM307.071 131.136C307.071 130.048 306.857 129.12 306.431 128.352C306.004 127.563 305.428 126.965 304.703 126.56C303.977 126.133 303.199 125.92 302.367 125.92C301.535 125.92 300.767 126.123 300.062 126.528C299.359 126.933 298.783 127.531 298.335 128.32C297.908 129.088 297.695 130.005 297.695 131.072C297.695 132.139 297.908 133.077 298.335 133.888C298.783 134.677 299.359 135.285 300.062 135.712C300.788 136.139 301.556 136.352 302.367 136.352C303.199 136.352 303.977 136.149 304.703 135.744C305.428 135.317 306.004 134.72 306.431 133.952C306.857 133.163 307.071 132.224 307.071 131.136ZM322.742 140.288C321.291 140.288 319.99 140.032 318.838 139.52C317.686 138.987 316.769 138.272 316.086 137.376C315.425 136.48 315.062 135.488 314.998 134.4H319.51C319.595 135.083 319.926 135.648 320.502 136.096C321.099 136.544 321.835 136.768 322.71 136.768C323.563 136.768 324.225 136.597 324.694 136.256C325.185 135.915 325.43 135.477 325.43 134.944C325.43 134.368 325.131 133.941 324.534 133.664C323.958 133.365 323.03 133.045 321.75 132.704C320.427 132.384 319.339 132.053 318.486 131.712C317.654 131.371 316.929 130.848 316.31 130.144C315.713 129.44 315.414 128.491 315.414 127.296C315.414 126.315 315.691 125.419 316.246 124.608C316.822 123.797 317.633 123.157 318.678 122.688C319.745 122.219 320.993 121.984 322.422 121.984C324.534 121.984 326.219 122.517 327.478 123.584C328.737 124.629 329.43 126.048 329.558 127.84H325.27C325.206 127.136 324.907 126.581 324.374 126.176C323.862 125.749 323.169 125.536 322.294 125.536C321.483 125.536 320.854 125.685 320.406 125.984C319.979 126.283 319.766 126.699 319.766 127.232C319.766 127.829 320.065 128.288 320.662 128.608C321.259 128.907 322.187 129.216 323.446 129.536C324.726 129.856 325.782 130.187 326.614 130.528C327.446 130.869 328.161 131.403 328.758 132.128C329.377 132.832 329.697 133.771 329.718 134.944C329.718 135.968 329.43 136.885 328.854 137.696C328.299 138.507 327.489 139.147 326.422 139.616C325.377 140.064 324.15 140.288 322.742 140.288ZM335.668 120.16C334.878 120.16 334.217 119.915 333.684 119.424C333.172 118.912 332.916 118.283 332.916 117.536C332.916 116.789 333.172 116.171 333.684 115.68C334.217 115.168 334.878 114.912 335.668 114.912C336.457 114.912 337.108 115.168 337.62 115.68C338.153 116.171 338.42 116.789 338.42 117.536C338.42 118.283 338.153 118.912 337.62 119.424C337.108 119.915 336.457 120.16 335.668 120.16ZM337.876 122.272V140H333.396V122.272H337.876ZM357.735 117.664C360.081 117.664 362.14 118.123 363.911 119.04C365.703 119.957 367.079 121.269 368.039 122.976C369.02 124.661 369.511 126.624 369.511 128.864C369.511 131.104 369.02 133.067 368.039 134.752C367.079 136.416 365.703 137.707 363.911 138.624C362.14 139.541 360.081 140 357.735 140H349.927V117.664H357.735ZM357.575 136.192C359.921 136.192 361.735 135.552 363.015 134.272C364.295 132.992 364.935 131.189 364.935 128.864C364.935 126.539 364.295 124.725 363.015 123.424C361.735 122.101 359.921 121.44 357.575 121.44H354.407V136.192H357.575ZM371.712 131.072C371.712 129.28 372.064 127.691 372.768 126.304C373.494 124.917 374.464 123.851 375.68 123.104C376.918 122.357 378.294 121.984 379.808 121.984C381.131 121.984 382.283 122.251 383.264 122.784C384.267 123.317 385.067 123.989 385.664 124.8V122.272H390.176V140H385.664V137.408C385.088 138.24 384.288 138.933 383.264 139.488C382.262 140.021 381.099 140.288 379.776 140.288C378.283 140.288 376.918 139.904 375.68 139.136C374.464 138.368 373.494 137.291 372.768 135.904C372.064 134.496 371.712 132.885 371.712 131.072ZM385.664 131.136C385.664 130.048 385.451 129.12 385.024 128.352C384.598 127.563 384.022 126.965 383.296 126.56C382.571 126.133 381.792 125.92 380.96 125.92C380.128 125.92 379.36 126.123 378.656 126.528C377.952 126.933 377.376 127.531 376.928 128.32C376.502 129.088 376.288 130.005 376.288 131.072C376.288 132.139 376.502 133.077 376.928 133.888C377.376 134.677 377.952 135.285 378.656 135.712C379.382 136.139 380.15 136.352 380.96 136.352C381.792 136.352 382.571 136.149 383.296 135.744C384.022 135.317 384.598 134.72 385.024 133.952C385.451 133.163 385.664 132.224 385.664 131.136ZM399.768 125.952V134.528C399.768 135.125 399.906 135.563 400.184 135.84C400.482 136.096 400.973 136.224 401.656 136.224H403.736V140H400.92C397.144 140 395.256 138.165 395.256 134.496V125.952H393.144V122.272H395.256V117.888H399.768V122.272H403.736V125.952H399.768ZM405.806 131.072C405.806 129.28 406.158 127.691 406.862 126.304C407.587 124.917 408.558 123.851 409.774 123.104C411.011 122.357 412.387 121.984 413.902 121.984C415.225 121.984 416.377 122.251 417.358 122.784C418.361 123.317 419.161 123.989 419.758 124.8V122.272H424.27V140H419.758V137.408C419.182 138.24 418.382 138.933 417.358 139.488C416.355 140.021 415.193 140.288 413.87 140.288C412.377 140.288 411.011 139.904 409.774 139.136C408.558 138.368 407.587 137.291 406.862 135.904C406.158 134.496 405.806 132.885 405.806 131.072ZM419.758 131.136C419.758 130.048 419.545 129.12 419.118 128.352C418.691 127.563 418.115 126.965 417.39 126.56C416.665 126.133 415.886 125.92 415.054 125.92C414.222 125.92 413.454 126.123 412.75 126.528C412.046 126.933 411.47 127.531 411.022 128.32C410.595 129.088 410.382 130.005 410.382 131.072C410.382 132.139 410.595 133.077 411.022 133.888C411.47 134.677 412.046 135.285 412.75 135.712C413.475 136.139 414.243 136.352 415.054 136.352C415.886 136.352 416.665 136.149 417.39 135.744C418.115 135.317 418.691 134.72 419.118 133.952C419.545 133.163 419.758 132.224 419.758 131.136Z" fill="black"/>
<path d="M75.888 80.632L74.832 85.56H78.896V89.56H73.968L72.816 95H68.56L69.712 89.56H63.888L62.736 95H58.512L59.664 89.56H54.832V85.56H60.528L61.584 80.632H56.784V76.632H62.448L63.568 71.32H67.792L66.672 76.632H72.496L73.616 71.32H77.872L76.752 76.632H80.848V80.632H75.888ZM71.632 80.632H65.808L64.752 85.56H70.576L71.632 80.632ZM84.071 83.032C84.071 79.3413 84.7323 76.4507 86.055 74.36C87.399 72.2693 89.6177 71.224 92.711 71.224C95.8043 71.224 98.0123 72.2693 99.335 74.36C100.679 76.4507 101.351 79.3413 101.351 83.032C101.351 86.744 100.679 89.656 99.335 91.768C98.0123 93.88 95.8043 94.936 92.711 94.936C89.6177 94.936 87.399 93.88 86.055 91.768C84.7323 89.656 84.071 86.744 84.071 83.032ZM96.935 83.032C96.935 81.4533 96.8283 80.1307 96.615 79.064C96.423 77.976 96.0177 77.0907 95.399 76.408C94.8017 75.7253 93.9057 75.384 92.711 75.384C91.5163 75.384 90.6097 75.7253 89.991 76.408C89.3937 77.0907 88.9883 77.976 88.775 79.064C88.583 80.1307 88.487 81.4533 88.487 83.032C88.487 84.6533 88.583 86.0187 88.775 87.128C88.967 88.216 89.3723 89.1013 89.991 89.784C90.6097 90.4453 91.5163 90.776 92.711 90.776C93.9057 90.776 94.8123 90.4453 95.431 89.784C96.0497 89.1013 96.455 88.216 96.647 87.128C96.839 86.0187 96.935 84.6533 96.935 83.032ZM104.215 75.8V71.672H111.927V95H107.319V75.8H104.215ZM75.888 125.632L74.832 130.56H78.896V134.56H73.968L72.816 140H68.56L69.712 134.56H63.888L62.736 140H58.512L59.664 134.56H54.832V130.56H60.528L61.584 125.632H56.784V121.632H62.448L63.568 116.32H67.792L66.672 121.632H72.496L73.616 116.32H77.872L76.752 121.632H80.848V125.632H75.888ZM71.632 125.632H65.808L64.752 130.56H70.576L71.632 125.632ZM84.071 128.032C84.071 124.341 84.7323 121.451 86.055 119.36C87.399 117.269 89.6177 116.224 92.711 116.224C95.8043 116.224 98.0123 117.269 99.335 119.36C100.679 121.451 101.351 124.341 101.351 128.032C101.351 131.744 100.679 134.656 99.335 136.768C98.0123 138.88 95.8043 139.936 92.711 139.936C89.6177 139.936 87.399 138.88 86.055 136.768C84.7323 134.656 84.071 131.744 84.071 128.032ZM96.935 128.032C96.935 126.453 96.8283 125.131 96.615 124.064C96.423 122.976 96.0177 122.091 95.399 121.408C94.8017 120.725 93.9057 120.384 92.711 120.384C91.5163 120.384 90.6097 120.725 89.991 121.408C89.3937 122.091 88.9883 122.976 88.775 124.064C88.583 125.131 88.487 126.453 88.487 128.032C88.487 129.653 88.583 131.019 88.775 132.128C88.967 133.216 89.3723 134.101 89.991 134.784C90.6097 135.445 91.5163 135.776 92.711 135.776C93.9057 135.776 94.8123 135.445 95.431 134.784C96.0497 134.101 96.455 133.216 96.647 132.128C96.839 131.019 96.935 129.653 96.935 128.032ZM106.167 134.944C108.215 133.237 109.847 131.819 111.062 130.688C112.279 129.536 113.292 128.341 114.103 127.104C114.913 125.867 115.319 124.651 115.319 123.456C115.319 122.368 115.063 121.515 114.551 120.896C114.039 120.277 113.249 119.968 112.183 119.968C111.116 119.968 110.295 120.331 109.719 121.056C109.143 121.76 108.844 122.731 108.823 123.968H104.471C104.556 121.408 105.313 119.467 106.743 118.144C108.193 116.821 110.028 116.16 112.247 116.16C114.679 116.16 116.545 116.811 117.847 118.112C119.148 119.392 119.799 121.088 119.799 123.2C119.799 124.864 119.351 126.453 118.455 127.968C117.559 129.483 116.535 130.805 115.383 131.936C114.231 133.045 112.727 134.389 110.871 135.968H120.311V139.68H104.503V136.352L106.167 134.944Z" fill="#ECD0FF"/>
</svg>
